# xmcd CD database file
#
# Track frame offsets:
#	150
#	20625
#	42345
#	62112
#	63925
#	81712
#	102305
#	122737
#	142517
#	164775
#	186147
#
# Disc length: 2795 seconds
#
# Revision: 18
# Processed by: cddbd v1.5.2PL0 Copyright (c) Steve Scherf et al.
# Submitted via: CDex 1.70beta3
#
DISCID=9c0ae90b
DTITLE=Every Little Thing - Time to Destination
DYEAR=1998
DGENRE=Pop
TTITLE0=For the moment
TTITLE1=今でも…あなたが好きだから
TTITLE2=Face the change 《Album Mix》
TTITLE3=Old Dreams 《Instrumental》
TTITLE4=モノクローム
TTITLE5=All along
TTITLE6=Hometown
TTITLE7=出逢った頃のように
TTITLE8=Shapes Of Love
TTITLE9=True colors
TTITLE10=Time goes by 《Orchestra Version》
EXTD=YEAR: 1998
EXTT0=
EXTT1=
EXTT2=
EXTT3=
EXTT4=
EXTT5=
EXTT6=
EXTT7=
EXTT8=
EXTT9=
EXTT10=
PLAYORDER=
